<svg viewBox="0 0 1200 630" xmlns="http://www.w3.org/2000/svg">
  <defs>
    <pattern id="dots" x="0" y="0" width="32" height="32" patternUnits="userSpaceOnUse">
      <circle cx="2" cy="2" r="1" fill="#FAFAF7" opacity="0.05" />
    </pattern>
    <linearGradient id="bgGrad" x1="0" y1="0" x2="1" y2="1">
      <stop offset="0%" stop-color="#0F2A44" />
      <stop offset="100%" stop-color="#1B3A5C" />
    </linearGradient>
  </defs>

  <rect width="1200" height="630" fill="url(#bgGrad)" />
  <rect width="1200" height="630" fill="url(#dots)" />

  <g transform="translate(80, 80)" stroke="#FAFAF7" stroke-width="3" fill="none">
    <rect x="0" y="0" width="56" height="56" rx="7" />
    <path d="M16 42 L16 21 L29 21 Q37 21 37 27 Q37 33 29 33 L16 33" stroke-linejoin="round" />
  </g>
  <circle cx="138" cy="98" r="5" fill="#C45B2D" />
  <text x="160" y="115" font-family="Manrope, Arial, sans-serif" font-size="30" font-weight="700" fill="#FAFAF7" letter-spacing="-1">Pragmaly</text>

  <text x="80" y="240" font-family="JetBrains Mono, Consolas, monospace" font-size="18" fill="#FAFAF7" opacity="0.65" letter-spacing="4">JILOTEPEC · CORREDOR MX—QRO</text>

  <text x="80" y="350" font-family="Manrope, Arial, sans-serif" font-size="78" font-weight="800" fill="#FAFAF7" letter-spacing="-2">Ordenamos cómo opera tu</text>
  <text x="80" y="430" font-family="Manrope, Arial, sans-serif" font-size="78" font-weight="800" fill="#FAFAF7" letter-spacing="-2">negocio y vemos tus datos.</text>

  <g transform="translate(80, 510)">
    <rect x="0" y="0" width="4" height="34" fill="#C45B2D" />
    <text x="20" y="24" font-family="JetBrains Mono, Consolas, monospace" font-size="19" font-weight="500" fill="#C45B2D" letter-spacing="3">DE LA OPORTUNIDAD A LA SOLUCIÓN</text>
  </g>

  <g transform="translate(960, 480)" opacity="0.18">
    <rect x="0" y="0" width="160" height="100" rx="6" fill="none" stroke="#FAFAF7" stroke-width="2" />
    <line x1="0" y1="24" x2="160" y2="24" stroke="#FAFAF7" stroke-width="2" />
    <polyline points="14,82 38,68 62,72 86,54 110,60 134,42" fill="none" stroke="#FAFAF7" stroke-width="2" stroke-linejoin="round" />
    <circle cx="134" cy="42" r="4" fill="#C45B2D" stroke="none" opacity="1" />
  </g>
</svg>
